<?xml version="1.0" encoding="UTF-8"?>
<svg id="Layer_2" xmlns="http://www.w3.org/2000/svg" version="1.1" viewBox="0 0 72.71 72.71">
  <!-- Generator: Adobe Illustrator 29.8.1, SVG Export Plug-In . SVG Version: 2.1.1 Build 2)  -->
  <defs>
    <style>
      .st0 {
        fill: #faf7f2;
      }
    </style>
  </defs>
  <g id="Layer_5_copy">
    <g>
      <path class="st0" d="M55.44,33.9l-6.36-6.36-6.36-6.36-6.37-6.37-19.09,19.09,12.73,12.73,6.36,6.36,6.36-6.36h0s12.73-12.73,12.73-12.73ZM29.98,33.9l6.36-6.36,6.36,6.36-6.36,6.36s-6.36-6.36-6.36-6.36Z"/>
      <polygon class="st0" points="61.8 40.27 58.62 37.08 52.26 43.45 55.44 46.63 58.62 49.81 64.99 43.45 61.8 40.27"/>
      <polygon class="st0" points="10.89 40.27 7.71 43.45 14.07 49.81 17.26 46.63 20.44 43.45 14.07 37.08 10.89 40.27"/>
    </g>
  </g>
</svg>
