<?xml version="1.0" encoding="UTF-8"?>
<svg id="Layer_2" xmlns="http://www.w3.org/2000/svg" version="1.1" viewBox="0 0 216 64.83">
  <!-- Generator: Adobe Illustrator 29.8.1, SVG Export Plug-In . SVG Version: 2.1.1 Build 2)  -->
  <defs>
    <style>
      .st0 {
        fill: #16120e;
      }
    </style>
  </defs>
  <g id="Layer_4_copy_2">
    <g>
      <rect class="st0" x="13.5" y="20" width="9" height="27"/>
      <polygon class="st0" points="49.5 20 49.5 38 40.5 38 40.5 20 31.5 20 31.5 38 31.5 47 40.5 47 49.5 47 58.5 47 58.5 38 58.5 20 49.5 20"/>
      <path class="st0" d="M85.5,20h-18v27h27v-27h-9ZM85.5,38h-9v-9h9v9Z"/>
      <polygon class="st0" points="121.5 20 112.5 20 103.5 20 103.5 29 103.5 47 112.5 47 112.5 29 121.5 29 121.5 47 130.5 47 130.5 29 130.5 20 121.5 20"/>
      <rect class="st0" x="139.5" y="20" width="9" height="27"/>
      <polyline class="st0" points="49.5 51.5 49.5 60.5 58.5 60.5 58.5 51.5"/>
      <g>
        <polygon class="st0" points="157.5 20 157.5 29 175.5 29 175.5 33.5 184.5 33.5 184.5 29 184.5 20 157.5 20"/>
        <polygon class="st0" points="166.5 33.5 157.5 33.5 157.5 38 157.5 47 184.5 47 184.5 38 166.5 38 166.5 33.5"/>
      </g>
      <polygon class="st0" points="211.5 20 202.5 20 193.5 20 193.5 29 193.5 47 202.5 47 202.5 29 211.5 29 216 29 216 20 211.5 20"/>
      <polygon class="st0" points="4.5 20 0 20 0 29 4.5 29 9 29 9 20 4.5 20"/>
    </g>
  </g>
</svg>
