<?xml version="1.0" encoding="UTF-8"?>
<svg id="Layer_2" data-name="Layer 2" xmlns="http://www.w3.org/2000/svg" viewBox="0 0 295.05 22.8">
  <defs>
    <style>
      .cls-1 {
        fill: #6e6458;
      }
    </style>
  </defs>
  <g id="Layer_1-2" data-name="Layer 1">
    <g>
      <path class="cls-1" d="M33.22,8.4h-6.86L30.98,0h2.94v1.92h-1.7l-2.49,4.56h4.68l-1.18,1.92Z"/>
      <path class="cls-1" d="M38,0v1.68h4.88l3.3-1.68h4.23l-7.06,3.6h-7.38V0h2.04ZM35.96,4.8h7.38l7.06,3.6h-4.23l-3.3-1.68h-4.88v1.68h-2.04v-3.6Z"/>
      <path class="cls-1" d="M51.23,8.4v-1.92h10.07V1.92h-10.07V0h12.11v8.4h-12.11Z"/>
      <path class="cls-1" d="M75.95,1.92v6.48h-2.04V1.92h-.24l-3.1,6.48h-2.23l-4.02-8.4h2.26l2.88,6,2.88-6h4.82v1.92h-1.2Z"/>
      <path class="cls-1" d="M93.04,8.4h-4.2l-4.5-4.5h2.52l2.7,2.7h.36V0h2.04v6.6h.36l2.7-2.7h2.52l-4.5,4.5Z"/>
      <path class="cls-1" d="M101.21,8.4V2.27l-1.61,1.62-1.34-1.37,2.51-2.52h2.48v8.4h-2.04Z"/>
      <path class="cls-1" d="M111.19,8.4h-6.86l4.62-8.4h2.94v1.92h-1.7l-2.49,4.56h4.68l-1.18,1.92Z"/>
      <path class="cls-1" d="M124.85,1.92v6.48h-2.04V1.92h-.24l-3.1,6.48h-2.23l-4.02-8.4h2.26l2.88,6,2.88-6h4.82v1.92h-1.2Z"/>
      <path class="cls-1" d="M140.37,6.5l-.7,1.9-6.55-2.39.7-1.9,6.55,2.39ZM145.67,8.4h-2.48l-8.38-8.4h2.85l5.97,5.98V0h2.04v8.4Z"/>
      <path class="cls-1" d="M155.33,8.4h-4.2l-4.5-4.5h2.52l2.7,2.7h.36V0h2.04v6.6h.36l2.7-2.7h2.52l-4.5,4.5Z"/>
      <path class="cls-1" d="M162.83,0v1.68h4.88l3.3-1.68h4.23l-7.06,3.6h-7.38V0h2.04ZM160.79,4.8h7.38l7.06,3.6h-4.23l-3.3-1.68h-4.88v1.68h-2.04v-3.6Z"/>
      <path class="cls-1" d="M178.35,0v5.76h-2.04V0h2.04ZM181.11,2.64v3.12h-2.04v-3.12h2.04ZM183.86,2.64v5.76h-2.04V2.64h2.04Z"/>
      <path class="cls-1" d="M185.43,8.4v-1.92h10.08V1.92h-10.08V0h12.11v8.4h-12.11Z"/>
      <path class="cls-1" d="M212.11,6.5l-.7,1.9-6.55-2.39.7-1.9,6.55,2.39ZM217.41,8.4h-2.48l-8.38-8.4h2.85l5.97,5.98V0h2.04v8.4Z"/>
      <path class="cls-1" d="M218.74,8.4v-1.92h10.08V1.92h-10.08V0h12.11v8.4h-12.11Z"/>
      <path class="cls-1" d="M235.01,8.4V2.27l-1.61,1.62-1.34-1.37,2.51-2.52h2.48v8.4h-2.04Z"/>
      <path class="cls-1" d="M243.43,8.4l-5.42-3.51,1.13-1.67,4.87,3.15V0h2.04v8.4h-2.62Z"/>
      <path class="cls-1" d="M252.31,8.4l-5.42-3.51,1.13-1.67,4.87,3.15V0h2.04v8.4h-2.62Z"/>
      <path class="cls-1" d="M263.02,6.5l-.7,1.9-6.55-2.39.7-1.9,6.55,2.39ZM268.32,8.4h-2.48l-8.38-8.4h2.85l5.97,5.98V0h2.04v8.4Z"/>
      <path class="cls-1" d="M9.76,14.4l-5.92,8.4H1.49l4.57-6.48H0l1.37-1.92h8.39Z"/>
      <path class="cls-1" d="M21.86,16.32v6.48h-2.04v-6.48h-.24l-3.1,6.48h-2.23l-4.02-8.4h2.26l2.88,6,2.88-6h4.82v1.92h-1.2Z"/>
      <path class="cls-1" d="M30.27,22.8h-6.86l4.62-8.4h2.94v1.92h-1.7l-2.49,4.56h4.68l-1.18,1.92Z"/>
      <path class="cls-1" d="M35.72,22.8v-6.13l-1.61,1.62-1.34-1.37,2.51-2.52h2.48v8.4h-2.04Z"/>
      <path class="cls-1" d="M40.69,22.8l-1.49-.84,4.07-7.56h2.04l4.07,7.56-1.49.84h-7.2ZM44.29,16.29l-2.46,4.58h4.92l-2.46-4.58Z"/>
      <path class="cls-1" d="M68.9,22.8h-11.2l-.52-.52v-7.36l.52-.52h11.2l.52.52v7.36l-.52.52ZM59.22,16.32v4.56h8.16v-4.56h-8.16Z"/>
      <path class="cls-1" d="M71.84,22.8l-1.22-1.92,2.82-6.48h6.01l2.82,6.48-1.22,1.92h-9.2ZM74.79,16.32l-1.98,4.56h7.26l-1.99-4.56h-3.29Z"/>
      <path class="cls-1" d="M92.39,14.4l-5.92,8.4h-2.35l4.57-6.48h-6.06l1.37-1.92h8.39Z"/>
      <path class="cls-1" d="M93.22,22.8v-1.92h10.07v-4.56h-10.07v-1.92h12.11v8.4h-12.11Z"/>
      <path class="cls-1" d="M113.42,20.9l-.7,1.9-6.55-2.39.7-1.9,6.55,2.39ZM118.72,22.8h-2.48l-8.38-8.4h2.85l5.97,5.98v-5.98h2.04v8.4Z"/>
      <path class="cls-1" d="M137.8,16.32v6.48h-2.04v-6.48h-.24l-3.1,6.48h-2.23l-4.02-8.4h2.26l2.88,6,2.88-6h4.82v1.92h-1.2Z"/>
      <path class="cls-1" d="M146.22,22.8h-6.86l4.62-8.4h2.94v1.92h-1.7l-2.49,4.56h4.68l-1.18,1.92Z"/>
      <path class="cls-1" d="M159.19,14.4l2.91,3.24h-2.58l-1.19-1.32h-6.69l-1.19,1.32h-2.58l2.92-3.24h8.4ZM150.79,22.8l-2.92-3.24h2.58l1.19,1.32h6.69l1.19-1.32h2.58l-2.91,3.24h0s-8.4,0-8.4,0ZM157.63,17.64v1.92h-5.28v-1.92h5.28Z"/>
      <path class="cls-1" d="M172.23,14.4l-5.92,8.4h-2.35l4.57-6.48h-6.06l1.37-1.92h8.39Z"/>
      <path class="cls-1" d="M175.21,14.4v1.68h4.88l3.29-1.68h4.23l-7.06,3.6h-7.38v-3.6h2.04ZM173.17,19.2h7.38l7.06,3.6h-4.23l-3.29-1.68h-4.88v1.68h-2.04v-3.6Z"/>
      <path class="cls-1" d="M190.73,14.4v5.76h-2.04v-5.76h2.04ZM193.48,17.04v3.12h-2.04v-3.12h2.04ZM196.24,17.04v5.76h-2.04v-5.76h2.04Z"/>
      <path class="cls-1" d="M208.12,16.32v6.48h-2.04v-6.48h-.24l-3.1,6.48h-2.23l-4.02-8.4h2.26l2.88,6,2.88-6h4.82v1.92h-1.2Z"/>
      <path class="cls-1" d="M219.15,14.4v5.76h-2.04v-5.76h2.04ZM221.91,17.04v3.12h-2.04v-3.12h2.04ZM224.67,17.04v5.76h-2.04v-5.76h2.04Z"/>
      <path class="cls-1" d="M226.23,16.32v-1.92h13.19v1.92h-13.19ZM226.23,22.8v-1.92h13.19v1.92h-13.19ZM228.51,19.56v-1.92h8.51v1.92h-8.51Z"/>
      <path class="cls-1" d="M242.79,14.4v1.68h4.88l3.29-1.68h4.23l-7.06,3.6h-7.38v-3.6h2.04ZM240.76,19.2h7.38l7.06,3.6h-4.23l-3.29-1.68h-4.88v1.68h-2.04v-3.6Z"/>
      <path class="cls-1" d="M259.34,22.8h-2.49,0c-.95-1.09-1.54-2.63-1.54-4.35,0-1.57.49-2.99,1.3-4.05h1.8c-.8.99-1.3,2.45-1.3,3.92,0,1.06.39,2.15.83,2.99l3.69-6.92h2.41l4.46,8.4h-2.17l-3.49-6.6-3.5,6.6Z"/>
      <path class="cls-1" d="M269.47,22.8v-8.4h2.04v6.48h4.39l2.49-4.56h-3.65v.72h-1.8v-2.64h8.78l-4.57,8.4h-7.69Z"/>
      <path class="cls-1" d="M293.85,16.32v6.48h-2.04v-6.48h-.24l-3.1,6.48h-2.23l-4.02-8.4h2.26l2.88,6,2.88-6h4.82v1.92h-1.2Z"/>
    </g>
  </g>
</svg>
